<svg xmlns="http://www.w3.org/2000/svg" width="1456" height="1066" viewBox="0 0 1456 1066">
  <metadata><?xpacket begin="﻿" id="W5M0MpCehiHzreSzNTczkc9d"?>
<x:xmpmeta xmlns:x="adobe:ns:meta/" x:xmptk="Adobe XMP Core 5.6-c138 79.159824, 2016/09/14-01:09:01        ">
   <rdf:RDF xmlns:rdf="http://www.w3.org/1999/02/22-rdf-syntax-ns#">
      <rdf:Description rdf:about=""/>
   </rdf:RDF>
</x:xmpmeta>
                                                                                                    
                                                                                                    
                                                                                                    
                                                                                                    
                                                                                                    
                                                                                                    
                                                                                                    
                                                                                                    
                                                                                                    
                                                                                                    
                                                                                                    
                                                                                                    
                                                                                                    
                                                                                                    
                                                                                                    
                                                                                                    
                                                                                                    
                                                                                                    
                                                                                                    
                                                                                                    
                           
<?xpacket end="w"?></metadata>
<defs>
    <style>
      .cls-1 {
        fill: #b91c1c;
        fill-rule: evenodd;
      }
    </style>
  </defs>
  <path id="Color_Fill_1" data-name="Color Fill 1" class="cls-1" d="M624,138q4.5,66.993,9,134c0.788,11.839,7.427,42.479,1,50l-46,6c-1.479-22.507-11.6-44.991-19-63-29.4-71.591-55.942-71-153-71-22.486,0-107.7-4.682-114,7-7,15.293-2,63.082-2,84V487c57.047,0.394,170.094,9.109,201-16,16.552-13.447,19.954-48.5,25-73,16.531-.425,36.689-1.713,46,5V571c0,21.239,4.122,54.96-5,68H526v-2c-12.164-26.89-6.922-60.724-29-77-30.464-22.458-143.419-13.338-197-13V756c0,35.682-.539,75.72,19,92,24.556,20.461,61.223,11.779,102,18,19.321,2.947,46.793,2.06,66-1l43-4c52.127-12.193,71.444-47.623,93-90,8.937-17.57,19.546-36.246,25-57,13.156,2.242,32.627,2.207,43,8l3,5c-17.882,64.173-26.752,131.723-42,194H223c-30.946,0-144.712,5.665-160-5V875c36.232-.072,89.019-5.352,105-27,20.425-27.667,13-96.189,13-142V358c0-43.109,6.146-125.35-12-150-14.286-19.407-56.855-22.279-89-23-0.423-16.731-1.816-37.539,5-47H624ZM958,371l11,5q0.5,41.5,1,83l2-2,30-21c28.65-19.129,58.45-39.96,92-53,35.05-13.625,85.63-5.342,114,7,103.91,45.2,91.01,166.411,91,313,0,42.717-7.49,134.531,11,158,12,15.236,42.26,11.213,64,17,0.43,15.929,1.4,34.137-5,43H1185c-22.25,0-59.18,4.659-73-5V878h2c25.04-9.734,53.46-1.484,66-23,12.07-20.708,8-61.583,8-93,0-75.188,11.48-193.544-12-248-24.63-57.115-100.5-65.017-157-32q-24.99,17-50,34V760c0,32.321-5.355,79.584,9,99,12.763,17.263,42.84,12.691,67,19,0.43,15.929,1.4,34.137-5,43H847c-22.85,0-61.715,4.983-76-5V878h2c26.637-10.543,61.231-1.389,76-23,12.2-17.847,9-57.346,9-86V573c0-29.568,3.7-71.563-9-90-10.142-14.726-40.478-19.137-62-22V422C833.079,416.167,929.564,393.445,958,371Z"/>
</svg>
