<svg xmlns="http://www.w3.org/2000/svg" width="1456" height="1066" viewBox="0 0 1456 1066">
  <metadata><?xpacket begin="﻿" id="W5M0MpCehiHzreSzNTczkc9d"?>
<x:xmpmeta xmlns:x="adobe:ns:meta/" x:xmptk="Adobe XMP Core 5.6-c138 79.159824, 2016/09/14-01:09:01        ">
   <rdf:RDF xmlns:rdf="http://www.w3.org/1999/02/22-rdf-syntax-ns#">
      <rdf:Description rdf:about=""/>
   </rdf:RDF>
</x:xmpmeta>
                                                                                                    
                                                                                                    
                                                                                                    
                                                                                                    
                                                                                                    
                                                                                                    
                                                                                                    
                                                                                                    
                                                                                                    
                                                                                                    
                                                                                                    
                                                                                                    
                                                                                                    
                                                                                                    
                                                                                                    
                                                                                                    
                                                                                                    
                                                                                                    
                                                                                                    
                                                                                                    
                           
<?xpacket end="w"?></metadata>
<defs>
    <style>
      .cls-1 {
        fill: #858585;
        fill-rule: evenodd;
      }
    </style>
  </defs>
  <path id="Color_Fill_3" data-name="Color Fill 3" class="cls-1" d="M210.113,102.781c5.244,1.037,20.959-3.913,27,3-0.567,10.1,6.337,30.488,2,40.009-42.778-.355-85.757,18.365-101.992,57.013-5.7,13.575,4.346,36.478,2,40.009l18,23.006c10.878,8.721,29.847,12.76,35,27.006,14.846,41.063-42.143,62.908-73.995,50.011C28.8,306.669,35.1,195.964,99.122,139.79c23.969-21.031,55.993-25.928,80.995-33.008Z"/>
  <path id="Color_Fill_2" data-name="Color Fill 2" class="cls-1" d="M248.023,262.818l52.969,3.456q1.726,12.094,3.454,24.192c46.818,33.891,152.82,2.809,222.24,13.824,55.926,8.874,95.652,20.07,119.756,59.9,46.5,76.839,6.042,231.1,23.03,338.687,4.312,27.305-1.861,52.787,6.909,73.728,10.738,25.636,40.51,11.31,62.182,25.344q1.151,1.728,2.3,3.456-8.061,57.018-16.121,114.047H417.293l-154.3,1.152-16.121,11.52L203.114,921.76c3.223-23.981,20.419-111.343,34.545-120.959,20.3-13.819,73.2-6.916,104.787-6.912H606.14q-7.485-69.114-14.97-138.24-2.3-45.5-4.606-91.008c-7.657-49.651,1.9-89.443-29.939-112.895-37.286-27.464-158.713-16.139-223.391-16.128-35.759,0-77.652,2.917-92.12-18.432C223.659,391.429,247.136,299.123,248.023,262.818Zm666.719,3.456c-0.2,13.312,2.871,21.345,8.061,28.8,11.64,4.261,24.676,6.847,40.3,9.216,30.156,4.571,79.744-9.547,101.334,4.608,0.38,0.768.77,1.536,1.15,2.3q-8.055,59.322-16.12,118.656c-42.48,11.2-79.667,96.061-65.637,155.519,18.227,77.234,61.637,137.684,94.427,201.6,98.66-49.834,136.05-100.964,168.12-217.728,7.56-27.547,25.08-84.029,11.51-116.351-11.92-28.4-74.55-10.557-97.88-27.648-28.65-21-2.02-121.647-1.15-162.432l52.97,3.456q1.725,12.094,3.45,24.192c28.14,19.89,111.35,1.852,127.82,33.408,8.82,16.893,3.29,46.608,2.3,67.968-2.49,54.2-14.51,107.258-26.48,154.367-19.97,78.628-57.88,249.67-108.24,289.152-71.32,55.913-167.2,98.047-246.423,145.151-36.049,21.438-85.039,39.918-102.484,79.488-13.045-1.56-30.776-4.44-40.3-10.37l-3.455-5.76c11.053-36.12,13.806-104.417,34.545-130.174l135.878-77.183a1811.662,1811.662,0,0,1-71.394-175.1c-7.866-22.489-24.054-51.366-18.424-84.1,8.99-52.258,31.191-99.393,51.818-141.695-33.969.72-78.8,3.122-93.272-16.128-16.059-21.363-.787-124.738,5.758-156.672Z"/>
</svg>
